<?xml version="1.0" encoding="UTF-8" standalone="no"?>
<!DOCTYPE svg PUBLIC "-//W3C//DTD SVG 1.0//EN" "http://www.w3.org/TR/2001/PR-SVG-20010719/DTD/svg10.dtd">
<svg width="32cm" height="40cm" viewBox="499 139 628 782" xmlns="http://www.w3.org/2000/svg" xmlns:xlink="http://www.w3.org/1999/xlink">
  <rect style="fill: none; fill-opacity:0; stroke-width: 2; stroke: #000000" x="660" y="200" width="240" height="640"/>
  <rect style="fill: none; fill-opacity:0; stroke-width: 2; stroke: #000000" x="700" y="340" width="160" height="300"/>
  <text font-size="12.8" style="fill: #000000;text-anchor:start;font-family:sans-serif;font-style:normal;font-weight:normal" x="680" y="220">
    <tspan x="680" y="220">ecmac</tspan>
  </text>
  <g>
    <polygon style="fill: #ffffff" points="734.559,140 840,140 825.441,180 720,180 "/>
    <polygon style="fill: none; fill-opacity:0; stroke-width: 2; stroke: #000000" points="734.559,140 840,140 825.441,180 720,180 "/>
    <text font-size="12.8" style="fill: #000000;text-anchor:middle;font-family:sans-serif;font-style:normal;font-weight:normal" x="780" y="163.9">
      <tspan x="780" y="163.9">Source file</tspan>
    </text>
  </g>
  <g>
    <ellipse style="fill: #ffffff" cx="780" cy="290" rx="60" ry="30"/>
    <ellipse style="fill: none; fill-opacity:0; stroke-width: 2; stroke: #000000" cx="780" cy="290" rx="60" ry="30"/>
    <text font-size="12.8" style="fill: #000000;text-anchor:middle;font-family:sans-serif;font-style:normal;font-weight:normal" x="780" y="293.9">
      <tspan x="780" y="293.9">Frontend</tspan>
    </text>
  </g>
  <g>
    <rect style="fill: #ffffff" x="740" y="380" width="80" height="40"/>
    <rect style="fill: none; fill-opacity:0; stroke-width: 2; stroke: #000000" x="740" y="380" width="80" height="40"/>
    <text font-size="12.8" style="fill: #000000;text-anchor:middle;font-family:sans-serif;font-style:normal;font-weight:normal" x="780" y="403.9">
      <tspan x="780" y="403.9">Parser</tspan>
    </text>
  </g>
  <g>
    <rect style="fill: #ffffff" x="740" y="480" width="80" height="40"/>
    <rect style="fill: none; fill-opacity:0; stroke-width: 2; stroke: #000000" x="740" y="480" width="80" height="40"/>
    <text font-size="12.8" style="fill: #000000;text-anchor:middle;font-family:sans-serif;font-style:normal;font-weight:normal" x="780" y="503.9">
      <tspan x="780" y="503.9">Analysis</tspan>
    </text>
  </g>
  <g>
    <rect style="fill: #ffffff" x="720" y="580" width="120" height="40"/>
    <rect style="fill: none; fill-opacity:0; stroke-width: 2; stroke: #000000" x="720" y="580" width="120" height="40"/>
    <text font-size="12.8" style="fill: #000000;text-anchor:middle;font-family:sans-serif;font-style:normal;font-weight:normal" x="780" y="603.9">
      <tspan x="780" y="603.9">Compilation</tspan>
    </text>
  </g>
  <g>
    <polygon style="fill: #ffffff" points="734.559,680 840,680 825.441,720 720,720 "/>
    <polygon style="fill: none; fill-opacity:0; stroke-width: 2; stroke: #000000" points="734.559,680 840,680 825.441,720 720,720 "/>
    <text font-size="12.8" style="fill: #000000;text-anchor:middle;font-family:sans-serif;font-style:normal;font-weight:normal" x="780" y="703.9">
      <tspan x="780" y="703.9">Object file</tspan>
    </text>
  </g>
  <g>
    <line style="fill: none; fill-opacity:0; stroke-width: 2; stroke: #000000" x1="780" y1="180.979" x2="780" y2="249.272"/>
    <polygon style="fill: #000000" points="780,256.772 775,246.772 780,249.272 785,246.772 "/>
    <polygon style="fill: none; fill-opacity:0; stroke-width: 2; stroke: #000000" points="780,256.772 775,246.772 780,249.272 785,246.772 "/>
  </g>
  <g>
    <line style="fill: none; fill-opacity:0; stroke-width: 2; stroke: #000000" x1="780" y1="321.005" x2="780" y2="369.29"/>
    <polygon style="fill: #000000" points="780,376.79 775,366.79 780,369.29 785,366.79 "/>
    <polygon style="fill: none; fill-opacity:0; stroke-width: 2; stroke: #000000" points="780,376.79 775,366.79 780,369.29 785,366.79 "/>
  </g>
  <g>
    <line style="fill: none; fill-opacity:0; stroke-width: 2; stroke: #000000" x1="780" y1="421.002" x2="780" y2="469.262"/>
    <polygon style="fill: #000000" points="780,476.762 775,466.762 780,469.262 785,466.762 "/>
    <polygon style="fill: none; fill-opacity:0; stroke-width: 2; stroke: #000000" points="780,476.762 775,466.762 780,469.262 785,466.762 "/>
  </g>
  <g>
    <line style="fill: none; fill-opacity:0; stroke-width: 2; stroke: #000000" x1="780" y1="521.002" x2="780" y2="569.262"/>
    <polygon style="fill: #000000" points="780,576.762 775,566.762 780,569.262 785,566.762 "/>
    <polygon style="fill: none; fill-opacity:0; stroke-width: 2; stroke: #000000" points="780,576.762 775,566.762 780,569.262 785,566.762 "/>
  </g>
  <g>
    <line style="fill: none; fill-opacity:0; stroke-width: 2; stroke: #000000" x1="780" y1="621.002" x2="780" y2="669.262"/>
    <polygon style="fill: #000000" points="780,676.762 775,666.762 780,669.262 785,666.762 "/>
    <polygon style="fill: none; fill-opacity:0; stroke-width: 2; stroke: #000000" points="780,676.762 775,666.762 780,669.262 785,666.762 "/>
  </g>
  <g>
    <rect style="fill: #ffffff" x="740" y="780" width="80" height="40"/>
    <rect style="fill: none; fill-opacity:0; stroke-width: 2; stroke: #000000" x="740" y="780" width="80" height="40"/>
    <text font-size="12.8" style="fill: #000000;text-anchor:middle;font-family:sans-serif;font-style:normal;font-weight:normal" x="780" y="803.9">
      <tspan x="780" y="803.9">Linking</tspan>
    </text>
  </g>
  <g>
    <line style="fill: none; fill-opacity:0; stroke-width: 2; stroke: #000000" x1="780" y1="721.002" x2="780" y2="769.262"/>
    <polygon style="fill: #000000" points="780,776.762 775,766.762 780,769.262 785,766.762 "/>
    <polygon style="fill: none; fill-opacity:0; stroke-width: 2; stroke: #000000" points="780,776.762 775,766.762 780,769.262 785,766.762 "/>
  </g>
  <g>
    <polygon style="fill: #ffffff" points="734.559,880 840,880 825.441,920 720,920 "/>
    <polygon style="fill: none; fill-opacity:0; stroke-width: 2; stroke: #000000" points="734.559,880 840,880 825.441,920 720,920 "/>
    <text font-size="12.8" style="fill: #000000;text-anchor:middle;font-family:sans-serif;font-style:normal;font-weight:normal" x="780" y="903.9">
      <tspan x="780" y="903.9">Executable</tspan>
    </text>
  </g>
  <g>
    <line style="fill: none; fill-opacity:0; stroke-width: 2; stroke: #000000" x1="780" y1="821.002" x2="780" y2="869.262"/>
    <polygon style="fill: #000000" points="780,876.762 775,866.762 780,869.262 785,866.762 "/>
    <polygon style="fill: none; fill-opacity:0; stroke-width: 2; stroke: #000000" points="780,876.762 775,866.762 780,869.262 785,866.762 "/>
  </g>
  <g>
    <polygon style="fill: #ffffff" points="514.559,740 620,740 605.441,780 500,780 "/>
    <polygon style="fill: none; fill-opacity:0; stroke-width: 2; stroke: #000000" points="514.559,740 620,740 605.441,780 500,780 "/>
    <text font-size="12.8" style="fill: #000000;text-anchor:middle;font-family:sans-serif;font-style:normal;font-weight:normal" x="560" y="763.9">
      <tspan x="560" y="763.9">Object file</tspan>
    </text>
  </g>
  <g>
    <polygon style="fill: #ffffff" points="514.559,820 620,820 605.441,860 500,860 "/>
    <polygon style="fill: none; fill-opacity:0; stroke-width: 2; stroke: #000000" points="514.559,820 620,820 605.441,860 500,860 "/>
    <text font-size="12.8" style="fill: #000000;text-anchor:middle;font-family:sans-serif;font-style:normal;font-weight:normal" x="560" y="843.9">
      <tspan x="560" y="843.9">Object file</tspan>
    </text>
  </g>
  <g>
    <line style="fill: none; fill-opacity:0; stroke-width: 2; stroke: #000000" x1="609.951" y1="769.082" x2="729.426" y2="790.805"/>
    <polygon style="fill: #000000" points="736.805,792.146 726.072,795.277 729.426,790.805 727.861,785.438 "/>
    <polygon style="fill: none; fill-opacity:0; stroke-width: 2; stroke: #000000" points="736.805,792.146 726.072,795.277 729.426,790.805 727.861,785.438 "/>
  </g>
  <g>
    <line style="fill: none; fill-opacity:0; stroke-width: 2; stroke: #000000" x1="616.934" y1="829.648" x2="729.426" y2="809.195"/>
    <polygon style="fill: #000000" points="736.805,807.854 727.861,814.562 729.426,809.195 726.072,804.723 "/>
    <polygon style="fill: none; fill-opacity:0; stroke-width: 2; stroke: #000000" points="736.805,807.854 727.861,814.562 729.426,809.195 726.072,804.723 "/>
  </g>
  <g>
    <rect style="fill: #ffffff" x="980" y="480" width="133.85" height="40"/>
    <rect style="fill: none; fill-opacity:0; stroke-width: 2; stroke: #000000" x="980" y="480" width="133.85" height="40"/>
    <text font-size="12.8" style="fill: #000000;text-anchor:middle;font-family:sans-serif;font-style:normal;font-weight:normal" x="1046.92" y="503.9">
      <tspan x="1046.92" y="503.9">External modules</tspan>
    </text>
  </g>
  <g>
    <line style="fill: none; fill-opacity:0; stroke-width: 2; stroke-dasharray: 4; stroke: #000000" x1="820.998" y1="500" x2="969.268" y2="500"/>
    <polygon style="fill: #000000" points="976.768,500 966.768,505 969.268,500 966.768,495 "/>
    <polygon style="fill: none; fill-opacity:0; stroke-width: 2; stroke: #000000" points="976.768,500 966.768,505 969.268,500 966.768,495 "/>
  </g>
  <g>
    <path style="fill: none; fill-opacity:0; stroke-width: 2; stroke: #000000" d="M 830.663,798.66 A 252.817,252.817 0 0 0 1050.07,521.007"/>
    <polygon style="fill: #000000" points="823.216,799.508 832.736,793.645 830.687,798.846 833.619,803.606 "/>
    <polygon style="fill: none; fill-opacity:0; stroke-width: 2; stroke: #000000" points="823.216,799.508 832.736,793.645 830.687,798.846 833.619,803.606 "/>
  </g>
  <text font-size="12.8" style="fill: #000000;text-anchor:start;font-family:sans-serif;font-style:normal;font-weight:normal" x="1040" y="680">
    <tspan x="1040" y="680">Link</tspan>
  </text>
  <text font-size="12.7998" style="fill: #000000;text-anchor:start;font-family:sans-serif;font-style:normal;font-weight:normal" x="800" y="460">
    <tspan x="800" y="460">-P flag</tspan>
  </text>
  <text font-size="12.7998" style="fill: #000000;text-anchor:start;font-family:sans-serif;font-style:normal;font-weight:normal" x="800" y="560">
    <tspan x="800" y="560">-A flag</tspan>
  </text>
  <text font-size="12.7998" style="fill: #000000;text-anchor:start;font-family:sans-serif;font-style:normal;font-weight:normal" x="800" y="760">
    <tspan x="800" y="760">-c flag</tspan>
  </text>
  <text font-size="12.7998" style="fill: #000000;text-anchor:start;font-family:sans-serif;font-style:normal;font-weight:normal" x="800" y="660">
    <tspan x="800" y="660">-S flag</tspan>
  </text>
  <g>
    <polygon style="fill: #ffffff" points="1042.92,340 1125.84,387.383 1042.92,434.766 960,387.383 "/>
    <polygon style="fill: none; fill-opacity:0; stroke-width: 2; stroke: #000000" points="1042.92,340 1125.84,387.383 1042.92,434.766 960,387.383 "/>
    <text font-size="12.7998" style="fill: #000000;text-anchor:middle;font-family:sans-serif;font-style:normal;font-weight:normal" x="1042.92" y="383.283">
      <tspan x="1042.92" y="383.283">Is module</tspan>
      <tspan x="1042.92" y="399.283">compiled?</tspan>
    </text>
  </g>
  <g>
    <line style="fill: none; fill-opacity:0; stroke-width: 2; stroke: #000000" x1="993.109" y1="406.824" x2="870.013" y2="454.868"/>
    <polygon style="fill: #000000" points="863.026,457.595 870.524,449.302 870.013,454.868 874.16,458.617 "/>
    <polygon style="fill: none; fill-opacity:0; stroke-width: 2; stroke: #000000" points="863.026,457.595 870.524,449.302 870.013,454.868 874.16,458.617 "/>
  </g>
  <text font-size="12.7998" style="fill: #000000;text-anchor:start;font-family:sans-serif;font-style:normal;font-weight:normal" x="920" y="420">
    <tspan x="920" y="420">no</tspan>
  </text>
  <g>
    <line style="fill: none; fill-opacity:0; stroke-width: 2; stroke: #000000" x1="1046.18" y1="479.049" x2="1044.95" y2="444.527"/>
    <polygon style="fill: #000000" points="1044.69,437.032 1050.04,446.848 1044.95,444.527 1040.04,447.203 "/>
    <polygon style="fill: none; fill-opacity:0; stroke-width: 2; stroke: #000000" points="1044.69,437.032 1050.04,446.848 1044.95,444.527 1040.04,447.203 "/>
  </g>
</svg>
